<?xml version="1.0" encoding="utf-8"?>
<!-- Generator: Adobe Illustrator 21.1.0, SVG Export Plug-In . SVG Version: 6.00 Build 0)  -->
<svg version="1.1" id="Layer_1" xmlns="http://www.w3.org/2000/svg" xmlns:xlink="http://www.w3.org/1999/xlink" x="0px" y="0px"
	 viewBox="0 0 34.8 34.8" style="enable-background:new 0 0 34.8 34.8;" xml:space="preserve">
<style type="text/css">
	.st0{fill:none;stroke:#000000;stroke-miterlimit:10;}
	.st1{stroke:#000000;stroke-width:0.25;stroke-miterlimit:10;}
</style>
<title>community-icon</title>
<circle class="st0" cx="17.4" cy="17.4" r="16.9"/>
<polygon class="st1" points="16.2,25.4 16.2,9 14.8,9 17.3,4.5 19.8,9 18.4,9 18.4,25.4 "/>
<polygon class="st1" points="18.4,25.4 19.8,25.4 17.3,29.9 14.8,25.4 16.2,25.4 "/>
<polygon class="st1" points="23.7,22.8 9.7,13.3 8.9,14.4 6.4,9.8 11.7,10.4 10.9,11.6 24.9,21.1 "/>
<polygon class="st1" points="24.9,21.1 25.7,20 28.1,24.6 22.9,23.9 23.7,22.8 "/>
<polygon class="st1" points="9.7,21.2 23.6,11.4 22.8,10.4 28,9.6 25.7,14.3 24.9,13.2 11,22.9 "/>
<polygon class="st1" points="11,22.9 11.8,24 6.5,24.8 8.9,20.1 9.7,21.2 "/>
</svg>
