<svg id="Layer_1" data-name="Layer 1" xmlns="http://www.w3.org/2000/svg" viewBox="0 0 21.959 32.468"><defs><style>.cls-1,.cls-3,.cls-4{stroke:#000;stroke-miterlimit:10;}.cls-2{fill:#f9f6e7;}.cls-3,.cls-4{fill:none;}.cls-4{stroke-width:0.3px;}</style></defs><title>fermentation-icon-alt</title><rect class="cls-1" x="2.259" y="0.5" width="17.493" height="3.835" rx="0.122" ry="0.122"/><path d="M26.074,7.822l1.35,2.89a2.379,2.379,0,0,0-1.05.22,3.55,3.55,0,0,0-1.3.97c-2.66,2.33-5.5-.08-5.5-.08a3.919,3.919,0,0,0-5,.25c-2.66,2.16-4.62.02-4.62.02a3.675,3.675,0,0,0-1.54-1.13,1.427,1.427,0,0,0-.22-.08,2.379,2.379,0,0,0-1.08-.04l1.34-3.01a.25.25,0,0,1,.22-.15h17.19A.243.243,0,0,1,26.074,7.822Z" transform="translate(-6.26 -1.264)"/><path class="cls-2" d="M26.374,17.4v12.08a3.886,3.886,0,0,1-3.55,3.75H11.614s-3.2-.75-3.2-3.75V17.4c2.35,3.69,5.23,1.18,5.81.61a.145.145,0,0,1,.21,0,3.773,3.773,0,0,0,5.7,0,.166.166,0,0,1,.21-.01C20.894,18.552,23.614,20.9,26.374,17.4Z" transform="translate(-6.26 -1.264)"/><path class="cls-3" d="M8.414,10.962v18.52c0,3,3.2,3.75,3.2,3.75h11.21a3.886,3.886,0,0,0,3.55-3.75V10.932" transform="translate(-6.26 -1.264)"/><path class="cls-3" d="M26.374,17.4c-2.76,3.5-5.48,1.15-6.03.6a.166.166,0,0,0-.21.01,3.773,3.773,0,0,1-5.7,0,.145.145,0,0,0-.21,0c-.58.57-3.46,3.08-5.81-.61" transform="translate(-6.26 -1.264)"/><path class="cls-3" d="M26.374,10.932a2.379,2.379,0,0,1,1.05-.22l-1.35-2.89a.243.243,0,0,0-.21-.14H8.674a.25.25,0,0,0-.22.15l-1.34,3.01a2.379,2.379,0,0,1,1.08.04,1.427,1.427,0,0,1,.22.08,3.675,3.675,0,0,1,1.54,1.13s1.96,2.14,4.62-.02a3.919,3.919,0,0,1,5-.25s2.84,2.41,5.5.08A3.55,3.55,0,0,1,26.374,10.932Z" transform="translate(-6.26 -1.264)"/><line class="cls-4" x1="2.259" y1="4.213" x2="2.196" y2="6.563"/><line class="cls-4" x1="19.615" y1="4.335" x2="19.615" y2="6.422"/></svg>