<svg id="Layer_1" data-name="Layer 1" xmlns="http://www.w3.org/2000/svg" viewBox="0 0 34.662 11.791"><defs><style>.cls-1{stroke:#231f20;stroke-miterlimit:10;stroke-width:0.25px;}</style></defs><title>woodwork</title><polygon class="cls-1" points="0.125 0.125 25.905 0.125 25.905 10.01 25.204 10.01 23.766 8.187 21.839 9.519 20.459 7.527 18.489 8.861 17.092 6.803 15.234 8.138 13.85 6.191 11.884 7.566 10.503 5.548 8.561 6.913 7.165 4.88 5.238 6.191 3.858 4.182 1.915 5.563 0.125 2.984 0.125 0.125"/><path class="cls-1" d="M34.6,13a1.527,1.527,0,0,0-1.337-1.266H27.245s-.083,8.593,0,10A1.41,1.41,0,0,0,28.519,23.2a48.879,48.879,0,0,0,4.939,0A1.472,1.472,0,0,0,34.6,22S34.842,14.189,34.6,13ZM32.9,20.3a1.32,1.32,0,0,1-1.316,1.316H30.517A1.32,1.32,0,0,1,29.2,20.3V14.877a1.32,1.32,0,0,1,1.316-1.316h1.071A1.32,1.32,0,0,1,32.9,14.877Z" transform="translate(-0.169 -11.604)"/></svg>