<svg id="Layer_1" data-name="Layer 1" xmlns="http://www.w3.org/2000/svg" viewBox="0 0 34.822 31.3"><defs><style>.cls-1,.cls-2,.cls-3{stroke:#000;stroke-miterlimit:10;}.cls-1{stroke-width:0.5px;}.cls-2,.cls-3{stroke-width:0.1px;}.cls-3{fill:none;}.cls-4{fill:#fff;}</style></defs><title>bee-icon</title><polygon class="cls-1" points="12.934 15.65 11.234 12.55 7.434 12.55 5.734 15.65 7.434 18.85 11.234 18.85 12.934 15.65"/><polygon class="cls-1" points="20.234 11.55 18.434 8.45 14.734 8.45 12.934 11.55 14.734 14.75 18.434 14.75 20.234 11.55"/><polygon class="cls-1" points="20.234 19.75 18.434 16.65 14.734 16.65 12.934 19.75 14.734 22.95 18.434 22.95 20.234 19.75"/><polygon class="cls-1" points="20.234 27.95 18.434 24.85 14.734 24.85 12.934 27.95 14.734 31.05 18.434 31.05 20.234 27.95"/><polygon class="cls-1" points="20.234 3.35 18.434 0.25 14.734 0.25 12.934 3.35 14.734 6.55 18.434 6.55 20.234 3.35"/><polygon class="cls-1" points="27.234 15.65 25.434 12.55 21.734 12.55 19.934 15.65 21.734 18.85 25.434 18.85 27.234 15.65"/><polygon class="cls-1" points="27.234 7.55 25.434 4.35 21.734 4.35 19.934 7.55 21.734 10.65 25.434 10.65 27.234 7.55"/><polygon class="cls-1" points="34.534 11.55 32.734 8.45 28.934 8.45 27.234 11.55 28.934 14.75 32.734 14.75 34.534 11.55"/><polygon class="cls-1" points="12.934 23.95 11.234 20.85 7.434 20.85 5.734 23.95 7.434 27.15 11.234 27.15 12.934 23.95"/><polygon class="cls-1" points="34.534 3.35 32.734 0.25 28.934 0.25 27.234 3.35 28.934 6.55 32.734 6.55 34.534 3.35"/><path class="cls-2" d="M1.8,13.5a4.331,4.331,0,0,1-.5.1v.1c0,.1.1.2.2.3C1.7,14.1,1.8,13.5,1.8,13.5Z" transform="translate(-0.066 -2.15)"/><path class="cls-2" d="M.4,14.1s.9-.5.9-.3-.6.5-.7.6S.4,14.1.4,14.1Z" transform="translate(-0.066 -2.15)"/><path class="cls-2" d="M6.6,10.6c-.5.4-1.7.1-1.7.1s0,.4-.9,0a11.869,11.869,0,0,1-2.2.9,2.786,2.786,0,0,1-1.6-.1s-1-3,3.9-3.8" transform="translate(-0.066 -2.15)"/><path class="cls-2" d="M5.1,14.1a2.437,2.437,0,0,0-.4,1,.219.219,0,0,0,.3.1C5.2,15,5.1,14.1,5.1,14.1Z" transform="translate(-0.066 -2.15)"/><path class="cls-2" d="M7.9,11.3c-1,.5-.6.8-.6.8l.1.1c.1,0,.3.1.5-.9" transform="translate(-0.066 -2.15)"/><path class="cls-2" d="M7.3,12c-.5,1-.5,1.4-.4,1.5a.31.31,0,0,0,.2.1s.3.3.4-1.6" transform="translate(-0.066 -2.15)"/><path class="cls-2" d="M6.9,13.6c-.8,1.1-.7,1.4-.7,1.4s0,.2.2.1c.2,0,.7-1.4.7-1.4" transform="translate(-0.066 -2.15)"/><path class="cls-3" d="M3.3,6.6" transform="translate(-0.066 -2.15)"/><g id="_Group_" data-name="&lt;Group&gt;"><path d="M9.7,9.4l-.8,1.4A1.414,1.414,0,0,1,9.7,9.4Z" transform="translate(-0.066 -2.15)"/><path d="M8.3,7.8A1.856,1.856,0,0,1,9.7,9.4a1.414,1.414,0,0,0-.8,1.4h0c0,1-3.2.3-2.5-1.5H7.5a.96.96,0,0,0,.128.136.27.27,0,0,0,.1.059.1.1,0,0,0,.114-.05A.565.565,0,0,0,7.9,9.2c-.3-.6-.4-.1-.4-.1-.1-.1-.3-.2-.4-.4Z" transform="translate(-0.066 -2.15)"/><path d="M8.3,7.8l-1.2.9a4.349,4.349,0,0,0-.7-.6l.4-.4A1.6,1.6,0,0,1,8.3,7.8Z" transform="translate(-0.066 -2.15)"/><path d="M7.9,9.2s.051.214-.014.285c-.024.026-.111.017-.155.011a.917.917,0,0,1-.282-.134S6.9,9.3,6.4,9.3l.7-.6c.1.2.3.3.4.4C7.5,9.1,7.6,8.6,7.9,9.2Z" transform="translate(-0.066 -2.15)"/><path d="M8.3,7.8s-.8-.6-1.4-.2C3.9,6,4.7,4.2,4.7,4.2s-.2-.5.1-.7c0,0-.4-.2-.3-1C4.6,1.6,6.1,2.7,8.3,7.8Z" transform="translate(-0.066 -2.15)"/><path d="M7.1,8.7l-.7.7c-.4-.1-.8-.1-.8-.3,0,0,.1-.6,0-.6A4.423,4.423,0,0,1,3.3,6.6S.6,4.7.9,4.7,2.2,3.9,6.4,8Z" transform="translate(-0.066 -2.15)"/><path class="cls-4" d="M6.9,7.6l-.5.5A1.18,1.18,0,0,1,6.9,7.6Z" transform="translate(-0.066 -2.15)"/><path class="cls-3" d="M6.4,9.4c-.4-.1-.8-.1-.8-.3,0,0,.1-.6,0-.6A4.423,4.423,0,0,1,3.3,6.6S.6,4.7.9,4.7,2.2,3.9,6.4,8a4.62,4.62,0,0,1,.7.7" transform="translate(-0.066 -2.15)"/><path class="cls-3" d="M6.9,7.6C3.9,6,4.7,4.2,4.7,4.2s-.2-.5.1-.7c0,0-.4-.2-.3-1s1.6.3,3.8,5.3a1.681,1.681,0,0,0-1.4-.2,1.18,1.18,0,0,0-.5.5" transform="translate(-0.066 -2.15)"/><path class="cls-3" d="M8.9,10.8c0,1-3.2.3-2.5-1.5" transform="translate(-0.066 -2.15)"/><path class="cls-3" d="M9.7,9.4l-.8,1.4a1.794,1.794,0,0,0,1.4,1.8s.1,1,.5-.1S11.7,8.4,9.7,9.4Z" transform="translate(-0.066 -2.15)"/></g><path class="cls-2" d="M11.2,10.4a2.975,2.975,0,0,1,.8-.7,5.419,5.419,0,0,1,1.5.2s.3.1-.1.1-1.2-.4-1.4-.1l-.8.7s.9-.4,1.1-.2a4.6,4.6,0,0,1,.4,1.3s0,.4-.2,0a4.549,4.549,0,0,1-.3-1.1l-1,.1" transform="translate(-0.066 -2.15)"/><path d="M9.7,9.4l-.8,1.4a1.928,1.928,0,0,0,1.4,1.8s.1,1,.5-.1S11.7,8.4,9.7,9.4Zm.2,2.7c-.28,0-.5-.49-.5-1.1s.22-1.1.5-1.1.5.49.5,1.1S10.18,12.1,9.9,12.1Z" transform="translate(-0.066 -2.15)"/><path class="cls-2" d="M6.2,10.8s.2.8-.9.5a3.777,3.777,0,0,1-.1,1.4c.3,1-.1,1.4-.1,1.4s-.7.5-.3-1.3l-.1-.1c-.2-.4.3-1.6.3-1.6s.1-.6.5-.1a.31.31,0,0,0,.4-.2" transform="translate(-0.066 -2.15)"/><polyline class="cls-2" points="4.034 5.55 6.834 6.75 6.534 8.45"/><path class="cls-2" d="M1.8,11.6l-.1.2s.3,0,.4.2c0,0,.2.3.5,0l.4-.8" transform="translate(-0.066 -2.15)"/><path class="cls-2" d="M1.8,13.7c1.3-.9.8-1.7.8-1.7l-.4.1a1,1,0,0,1-.4-.1c-.2-.1-.8,1.5-.6,1.4s.4.1.4.1Z" transform="translate(-0.066 -2.15)"/></svg>