<svg id="Layer_1" data-name="Layer 1" xmlns="http://www.w3.org/2000/svg" viewBox="0 0 29.213 34.442"><defs><style>.cls-1{stroke:#000;stroke-miterlimit:10;stroke-width:0.3px;}</style></defs><title>cat</title><path class="cls-1" d="M30.449,4.371,27.332,7.586a1.453,1.453,0,0,1-1.048.442l-2.217-.007a1.453,1.453,0,0,1-1.045-.448L19.794,4.2a.92.92,0,0,0-1.494.658v5.6a1.459,1.459,0,0,1-1.758,1.417,15.8,15.8,0,0,0-8.994.642c-.912.4-1.913.076-1.989-.917a6.91,6.91,0,0,1,.36-3.239c1.242-2.217,2.683.366,5.254.9a2.955,2.955,0,0,0,3.413-1.917,4.844,4.844,0,0,0-.155-3.271c-.316-.831-.053-.769.321-1.075.855-.7.941-2.067-.105-2.422A2.168,2.168,0,0,0,12.359,1a2.656,2.656,0,0,0-.488,2.261c.37,1.678,1.147,4.955-1.463,3.3-3.993-2.527-5.695-1.248-6.651.2a8.607,8.607,0,0,0-.714,3.37l0,21.992a2.254,2.254,0,0,0,2.394,2.439A2.187,2.187,0,0,0,7.97,32.3V26.256a1.474,1.474,0,0,1,.949-1.368,14.978,14.978,0,0,1,10.188-.064,1.443,1.443,0,0,1,.961,1.377l-.038,6.1a2.832,2.832,0,0,0,2.749,2.261,2.28,2.28,0,0,0,2.35-2.261l.079-10.58a1.47,1.47,0,0,1,1.2-1.418,6.862,6.862,0,0,0,5.54-6.231c0-.039,0-.072,0-.112V4.926C31.757,3.374,30.449,4.371,30.449,4.371Zm-8.207,9.942a1.33,1.33,0,1,1,1.33-1.33A1.33,1.33,0,0,1,22.242,14.313Zm4.306,1.06-.066.123-1.019.709-.187,0-1.027-.647-.046-.105v-.606l.068-.058h2.2l.081.052Zm2.026-1.06a1.33,1.33,0,1,1,1.33-1.33A1.33,1.33,0,0,1,28.573,14.313Z" transform="translate(-2.893 -0.279)"/></svg>