<?xml version="1.0" encoding="utf-8"?>
<!-- Generator: Adobe Illustrator 21.1.0, SVG Export Plug-In . SVG Version: 6.00 Build 0)  -->
<svg version="1.1" id="Layer_1" xmlns="http://www.w3.org/2000/svg" xmlns:xlink="http://www.w3.org/1999/xlink" x="0px" y="0px"
	 viewBox="0 0 24 24" style="enable-background:new 0 0 24 24;" xml:space="preserve">
<title></title>
<g id="Git">
	<path d="M23.6,10.9L13.1,0.4c-0.6-0.6-1.5-0.6-2.1,0l-2,2c-0.2,0.2-0.2,0.5,0,0.7c0,0,0,0,0,0L10.7,5c0.1,0.1,0.4,0.2,0.5,0.1
		c1-0.4,2.2,0.1,2.6,1.1C14,6.5,14,6.7,14,7c0,0.3-0.1,0.5-0.1,0.7c-0.1,0.2,0,0.4,0.1,0.5l1.8,1.7c0.1,0.1,0.4,0.2,0.5,0.1
		c1-0.4,2.2,0.1,2.6,1.1c0.4,1-0.1,2.2-1.1,2.6c-1,0.4-2.2-0.1-2.6-1.1C15.1,12.5,15,12.2,15,12c0-0.2,0.1-0.5,0.1-0.7
		c0.1-0.2,0-0.4-0.1-0.5l-1.7-1.7c-0.2-0.2-0.5-0.2-0.7,0c-0.1,0.1-0.1,0.2-0.1,0.3v5.3c0,0.2,0.1,0.4,0.3,0.5c1,0.4,1.5,1.6,1,2.6
		c-0.4,1-1.6,1.5-2.6,1s-1.5-1.6-1-2.6c0.2-0.5,0.6-0.8,1-1c0.2-0.1,0.3-0.3,0.3-0.5V9.3c0-0.2-0.1-0.4-0.3-0.5
		c-1-0.4-1.5-1.6-1.1-2.6c0.1-0.2,0-0.4-0.1-0.5L8.2,3.9C8,3.7,7.7,3.7,7.5,3.9c0,0,0,0,0,0l-7,7c-0.6,0.6-0.6,1.5,0,2.1L11,23.5
		c0.6,0.6,1.5,0.6,2.1,0L23.6,13C24.2,12.4,24.2,11.5,23.6,10.9L23.6,10.9z"/>
</g>
</svg>
