<svg id="Layer_1" data-name="Layer 1" xmlns="http://www.w3.org/2000/svg" viewBox="0 0 29.582 24.023"><defs><style>.cls-1{fill:none;stroke:#000;stroke-miterlimit:10;stroke-width:0.25px;}</style></defs><title>plant-icon</title><path d="M23.57,24.1c.23-.25-.25-1.06-1.08-1.81s-1.68-1.15-1.91-.9.25,1.07,1.08,1.82S23.34,24.36,23.57,24.1Zm-7.23-9.66c.56-.32.92-.77.79-1s-.7-.14-1.26.18-.92.78-.79,1S15.78,14.77,16.34,14.44Zm-4.1-1.22c-6.28,1.07-7.99,4.14-7.99,4.14s-1.85-1.7-1.32-3.6,5.29-1.95,8.93-2.44.84-.96.84-.96a16.213,16.213,0,0,0-9.26.74s.07-3.44,2.31-3.64a18.135,18.135,0,0,1,5.27.62s3.02.59,1.15-.42S6.48,6.52,6.48,6.52a4.664,4.664,0,0,1,2.36-.81s8.82-.93,8.98,4.26h.52c-1.58-3.88,3.77-4.32,3.77-4.32,4.56-.28,5.8,1.18,6.14,1.91a.111.111,0,0,1-.16.14c-1.59-1.09-5.22.65-5.22.65-.95.72.53.67.53.67l6.33-.05a.553.553,0,0,1,.3.09,4.273,4.273,0,0,1,2.01,4.73c-8.02-3.39-10.43-2.65-10.43-2.65-.61.53.29.68.29.68a22.582,22.582,0,0,1,8.94,3.12c2.08,3.08-.86,4.11-.86,4.11-1.43-1.93-4.92-3.89-4.92-3.89s-2.86-1.75-3.71-1.53.06.7.06.7a25.347,25.347,0,0,1,7.3,4.41c2.29,2.13.78,3.53-.23,4.17-.34.22-5.23-5.6-7.02-5.9a4.029,4.029,0,0,0-.65-.05c-.97.69.26,1.46.26,1.46s3.73,1.47,5.23,3.88-5.35,7.08-5.35,7.08c-.2-.04-2.51-.05-4.57-.14s-2.08-.79-2.08-.79c-.43-3,.22-3.2,1.39-6.34s-.55-1.45-.55-1.45c-3.01,3.75-2.24,5.96-2.24,5.96-3.38.21-3.74-2.05-3.74-2.05a7.755,7.755,0,0,1,.75-2.97,7.647,7.647,0,0,1,2.89-2.92c.13-.07.27-.15.43-.24a5.531,5.531,0,0,0,1.05-.82c2.4-2.35-.34-1.48-.34-1.48-3.12,1.08-5.3,6.05-5.3,6.05a3.968,3.968,0,0,1-2.58-3.21c-.19-2.39,3.96-3.64,6.32-4.93S12.24,13.22,12.24,13.22Z" transform="translate(-2.71 -5.49)"/><path class="cls-1" d="M18.34,9.97c-1.58-3.88,3.77-4.32,3.77-4.32,4.56-.28,5.8,1.18,6.14,1.91a.111.111,0,0,1-.16.14c-1.59-1.09-5.22.65-5.22.65-.95.72.53.67.53.67l6.33-.05a.553.553,0,0,1,.3.09,4.273,4.273,0,0,1,2.01,4.73c-8.02-3.39-10.43-2.65-10.43-2.65-.61.53.29.68.29.68a22.582,22.582,0,0,1,8.94,3.12c2.08,3.08-.86,4.11-.86,4.11-1.43-1.93-4.92-3.89-4.92-3.89s-2.86-1.75-3.71-1.53.06.7.06.7a25.347,25.347,0,0,1,7.3,4.41c2.29,2.13.78,3.53-.23,4.17-.34.22-5.23-5.6-7.02-5.9a4.029,4.029,0,0,0-.65-.05c-.97.69.26,1.46.26,1.46s3.73,1.47,5.23,3.88-5.35,7.08-5.35,7.08c-.2-.04-2.51-.05-4.57-.14s-2.08-.79-2.08-.79c-.43-3,.22-3.2,1.39-6.34s-.55-1.45-.55-1.45c-3.01,3.75-2.24,5.96-2.24,5.96-3.38.21-3.74-2.05-3.74-2.05a7.755,7.755,0,0,1,.75-2.97,7.647,7.647,0,0,1,2.89-2.92c.13-.07.27-.15.43-.24a5.531,5.531,0,0,0,1.05-.82c2.4-2.35-.34-1.48-.34-1.48-3.12,1.08-5.3,6.05-5.3,6.05a3.968,3.968,0,0,1-2.58-3.21c-.19-2.39,3.96-3.64,6.32-4.93s-.14-.83-.14-.83c-6.28,1.07-7.99,4.14-7.99,4.14s-1.85-1.7-1.32-3.6,5.29-1.95,8.93-2.44.84-.96.84-.96a16.213,16.213,0,0,0-9.26.74s.07-3.44,2.31-3.64a18.135,18.135,0,0,1,5.27.62s3.02.59,1.15-.42S6.48,6.52,6.48,6.52a4.664,4.664,0,0,1,2.36-.81s8.82-.93,8.98,4.26Z" transform="translate(-2.71 -5.49)"/><path class="cls-1" d="M23.57,24.1c-.23.26-1.09-.14-1.91-.89s-1.31-1.56-1.08-1.82,1.09.15,1.91.9S23.8,23.85,23.57,24.1Z" transform="translate(-2.71 -5.49)"/><path class="cls-1" d="M17.13,13.44c.13.23-.23.68-.79,1s-1.13.41-1.26.18.22-.67.79-1S17,13.22,17.13,13.44Z" transform="translate(-2.71 -5.49)"/></svg>