<?xml version="1.0" encoding="utf-8"?>
<!-- Generator: Adobe Illustrator 21.1.0, SVG Export Plug-In . SVG Version: 6.00 Build 0)  -->
<svg version="1.1" id="Layer_1" xmlns="http://www.w3.org/2000/svg" xmlns:xlink="http://www.w3.org/1999/xlink" x="0px" y="0px"
	 viewBox="0 0 2500 2467" style="enable-background:new 0 0 2500 2467;" xml:space="preserve">
<g>
	<path d="M1181.6,1666.8h136.8v-373.1h344.1v-132.7h-344.1V787.8h-136.8v373.1h-340v132.7h340V1666.8z"/>
	<path d="M547.3,2205.7h116.1V1874h306.8v-103.6H663.3v-335.8H547.3v335.8H240.5V1874h306.8L547.3,2205.7z"/>
	<path d="M1836.7,1007.5h116.1V675.9h310.9v-99.5h-310.9V240.5h-116.1v335.8h-306.8v99.5h306.8V1007.5z"/>
	<path d="M1202.3,2466.9h99.5v-236.3h211.4v-87.1h-211.4v-236.3h-99.5v236.3H995v87.1h207.3V2466.9z"/>
	<path d="M551.4,1007.5h107.8V671.7h310.9v-95.4H659.2V240.5H551.4v335.8H240.5v95.4h310.9V1007.5z"/>
	<path d="M2189.1,1505.1h99.5v-232.2H2500v-91.2h-211.4V949.5h-99.5v232.2h-207.3v91.2h207.3V1505.1z"/>
	<path d="M1836.7,2205.7h116.1V1874h310.9v-103.6h-310.9v-335.8h-116.1v335.8h-306.8V1874h306.8V2205.7z"/>
	<path d="M1496.7,298.6v-70.5h-207.3V0.1h-74.6v228h-207.3v70.5h207.3v228h74.6v-228H1496.7z M207.3,1488.5h74.6v-228h207.3V1190
		H281.9V966.1h-74.6V1190H0v74.6l207.3-4.1V1488.5z"/>
</g>
</svg>
